 <svg version="1.0" xmlns="http://www.w3.org/2000/svg" width="700.000000pt" height="678.000000pt" viewBox="0 0 700.000000 678.000000" preserveAspectRatio="xMidYMid meet">
<metadata>
Created by potrace 1.12, written by Peter Selinger 2001-2015
</metadata>
<g transform="translate(0.000000,678.000000) scale(0.100000,-0.100000)" fill="#000" stroke="none">
<path d="M2730 6561 c-14 -4 -40 -11 -57 -15 -18 -5 -33 -12 -33 -17 0 -5 -7
-9 -15 -9 -8 0 -15 -4 -15 -10 0 -5 -7 -10 -15 -10 -8 0 -15 -6 -15 -12 0 -21
109 -115 203 -175 48 -31 87 -59 87 -62 0 -3 -23 -21 -51 -40 -28 -19 -65 -51
-82 -71 -30 -35 -37 -38 -104 -44 -40 -4 -86 -11 -103 -16 -26 -7 -39 -5 -70
15 -87 55 -265 145 -287 145 -13 0 -31 -5 -41 -11 -14 -9 -26 -6 -57 11 -118
67 -224 119 -255 125 -22 4 -30 3 -22 -3 10 -7 3 -16 -30 -35 -52 -31 -115
-91 -123 -118 -12 -37 18 -58 256 -182 58 -31 124 -60 147 -67 23 -6 42 -15
42 -19 0 -5 -42 -29 -93 -54 -51 -25 -118 -66 -150 -92 -40 -34 -62 -45 -74
-40 -25 10 -199 55 -248 64 -22 5 -67 14 -100 21 l-61 13 -102 -78 c-114 -87
-117 -90 -126 -127 -8 -36 8 -44 109 -52 113 -8 315 -32 320 -38 3 -2 -9 -17
-25 -33 -29 -28 -30 -28 -67 -12 -46 19 -82 24 -293 42 -91 8 -185 17 -210 21
-45 6 -45 6 -80 -42 -19 -27 -56 -76 -82 -109 -41 -50 -46 -61 -34 -73 24 -24
161 -34 374 -27 111 3 202 3 202 0 0 -4 -20 -29 -44 -56 -24 -27 -58 -73 -74
-103 -34 -59 -31 -58 -182 -71 -130 -12 -290 -51 -290 -71 0 -7 -25 -34 -56
-61 -65 -57 -148 -168 -140 -189 3 -9 19 -14 43 -14 37 1 54 4 183 34 102 23
228 46 256 46 24 0 24 -2 -40 -127 -108 -213 -137 -296 -161 -458 -9 -60 -21
-139 -27 -175 -12 -77 -5 -404 10 -475 6 -27 18 -88 26 -135 33 -178 46 -229
91 -355 25 -71 52 -148 59 -170 8 -22 62 -139 121 -260 119 -243 216 -393 290
-446 25 -18 46 -37 46 -43 1 -6 2 -164 3 -351 1 -297 3 -346 18 -385 10 -25
18 -53 18 -63 0 -10 14 -53 30 -96 25 -65 47 -98 124 -188 109 -126 145 -161
246 -236 72 -55 197 -122 271 -146 27 -9 38 -20 48 -46 8 -23 27 -45 51 -60
21 -13 53 -37 72 -53 63 -53 313 -211 383 -241 134 -57 365 -101 403 -77 7 4
12 31 12 62 l0 55 33 -25 c40 -30 68 -33 90 -8 14 15 97 184 97 197 0 2 20 46
45 97 25 51 45 100 45 108 0 8 9 29 20 47 18 31 34 81 59 189 14 60 3 125 -33
194 -13 25 -27 56 -31 69 -7 23 -6 24 46 19 30 -3 64 -1 76 5 18 8 29 5 59
-19 82 -66 194 -134 219 -134 7 0 35 65 55 125 15 49 17 50 65 58 70 11 183
35 303 64 57 14 108 21 112 17 5 -5 23 -38 40 -73 59 -119 171 -282 277 -402
111 -126 269 -259 308 -259 28 0 69 -32 106 -83 16 -23 51 -64 78 -93 44 -47
53 -52 105 -58 37 -5 68 -4 86 4 68 28 311 390 355 530 7 21 6 22 -7 9 -8 -8
-28 -35 -43 -59 -38 -60 -201 -220 -225 -220 -23 0 -51 39 -75 105 -10 28 -24
57 -32 66 -7 8 -13 31 -13 51 0 23 -8 44 -26 64 -34 38 -74 122 -74 155 0 14
-9 34 -20 44 -11 10 -20 22 -20 27 0 5 -9 28 -21 51 -46 93 -123 313 -122 352
1 35 8 46 55 88 48 43 92 66 103 55 3 -3 10 -54 17 -114 9 -87 16 -112 33
-129 11 -11 73 -81 137 -156 124 -144 332 -349 356 -349 8 0 51 -20 95 -44 45
-24 97 -46 115 -50 28 -5 34 -2 42 20 6 14 13 51 16 82 4 31 13 82 21 112 31
124 63 556 53 725 l-5 90 -8 -65 c-4 -36 -12 -157 -17 -270 -10 -209 -21 -324
-43 -459 -11 -64 -17 -76 -34 -79 -16 -2 -24 6 -37 38 -9 22 -16 48 -16 58 0
9 -7 28 -14 42 -59 106 -82 181 -71 238 4 24 0 42 -14 66 -12 18 -19 35 -16
38 3 3 -4 31 -15 63 -11 32 -20 73 -20 92 0 18 -4 33 -9 33 -5 0 -13 13 -19
28 -7 21 -6 33 4 47 19 26 18 35 -6 35 -11 0 -20 5 -20 10 0 6 8 10 17 10 9 0
24 6 32 13 9 8 48 22 86 32 76 20 126 44 165 80 14 12 59 44 100 70 96 61 201
145 194 156 -3 5 0 9 6 9 6 0 9 4 5 9 -3 5 4 12 15 16 11 3 20 10 20 15 0 5
24 37 53 72 73 86 160 209 152 216 -3 3 -22 -10 -43 -30 -68 -66 -250 -188
-280 -188 -5 0 -12 38 -16 85 -3 46 -11 108 -17 137 -20 101 -56 259 -69 298
-4 14 -16 54 -25 90 -10 36 -25 88 -35 115 -10 28 -32 95 -50 150 -36 110 -93
245 -123 288 -11 16 -18 30 -16 31 16 13 88 13 113 1 15 -8 44 -15 63 -15 54
0 77 33 96 143 9 51 17 105 17 121 0 15 7 41 16 58 33 64 74 227 74 295 0 116
-82 335 -199 528 -83 138 -81 138 -74 2 3 -68 2 -117 -3 -117 -5 1 -26 24 -46
53 -62 85 -357 380 -445 446 -46 33 -83 60 -83 58 0 -1 7 -27 16 -57 8 -30 26
-97 39 -148 13 -52 27 -102 30 -113 4 -10 2 -19 -3 -19 -13 0 -604 594 -641
645 -57 77 -288 284 -436 391 -99 71 -291 175 -366 197 -8 3 -29 34 -47 68
-34 70 -121 206 -224 350 -100 142 -92 136 -203 144 -90 7 -170 3 -182 -8 -12
-13 123 -199 299 -409 54 -65 98 -121 98 -126 0 -15 -128 -3 -195 18 -33 10
-112 28 -175 40 -63 12 -128 26 -145 31 -30 10 -95 84 -127 143 -16 32 -214
229 -302 300 -37 31 -56 40 -94 42 -26 1 -58 -1 -72 -5z m890 -666 c58 -18
166 -58 240 -89 74 -32 180 -75 235 -97 104 -40 135 -56 370 -178 277 -145
426 -244 596 -396 31 -27 82 -70 114 -95 32 -25 97 -89 145 -142 l87 -97 33
-133 c39 -164 37 -150 24 -155 -6 -2 -39 23 -75 55 -70 63 -118 97 -126 88 -3
-3 4 -33 16 -67 15 -46 18 -66 10 -81 -6 -12 -8 -40 -4 -71 l7 -51 -32 27
c-17 15 -35 27 -39 27 -5 0 -53 45 -107 100 -173 176 -416 397 -499 454 -44
31 -89 63 -100 72 -11 9 -63 36 -115 61 -52 25 -106 51 -120 58 -62 32 -216
75 -321 91 -100 15 -119 15 -144 3 -22 -10 -31 -22 -33 -44 -5 -42 -20 -55
-38 -31 -12 17 -14 17 -14 3 0 -9 -9 -21 -20 -27 -11 -6 -20 -16 -20 -24 0
-18 -68 -91 -77 -82 -10 10 -13 69 -3 81 14 19 18 101 11 228 -8 120 -13 148
-27 135 -3 -4 -9 -82 -14 -175 -9 -185 -23 -238 -76 -302 -16 -20 -38 -58 -48
-86 -10 -27 -47 -103 -83 -167 -47 -86 -63 -124 -58 -139 5 -15 4 -19 -4 -15
-6 4 -11 0 -11 -9 0 -26 -60 -195 -85 -240 -22 -38 -43 -101 -79 -230 -10 -33
-22 -74 -27 -92 -5 -17 -10 -58 -10 -90 0 -32 -7 -112 -16 -179 -14 -104 -15
-159 -6 -382 l10 -262 31 -62 c16 -35 35 -76 40 -93 5 -16 53 -95 106 -174 53
-79 96 -147 97 -150 5 -40 22 -67 128 -201 96 -123 302 -421 327 -475 31 -66
30 -89 -7 -136 -23 -30 -33 -55 -40 -106 -12 -86 -49 -203 -65 -203 -6 0 -17
6 -23 14 -6 8 -26 20 -44 27 -18 7 -41 21 -53 31 -11 10 -41 28 -67 41 -42 20
-200 157 -251 217 -11 14 -77 82 -145 152 -78 80 -140 153 -169 200 -24 40
-51 80 -59 88 -14 13 -15 10 -11 -30 3 -25 13 -63 23 -84 15 -32 16 -39 4 -47
-8 -5 -20 -9 -26 -9 -25 0 -13 -61 25 -128 22 -38 81 -124 133 -193 85 -111
250 -370 302 -474 11 -22 23 -45 26 -51 3 -7 22 -34 41 -60 33 -46 35 -54 38
-142 4 -85 2 -93 -14 -90 -14 2 -26 -18 -59 -100 -43 -106 -95 -192 -117 -192
-17 0 -78 61 -78 79 0 8 -33 57 -72 109 -40 52 -79 106 -87 121 -29 57 -62
101 -71 96 -9 -6 -120 207 -120 230 0 12 -23 68 -60 150 -11 22 -22 52 -25 66
-10 42 -59 83 -89 75 -20 -5 -24 -3 -20 9 4 8 -1 17 -10 21 -9 3 -16 12 -16
20 0 8 -8 22 -18 32 -10 10 -21 26 -25 35 -8 21 -21 22 -37 2 -22 -27 8 -146
117 -460 70 -201 134 -344 228 -510 41 -71 79 -152 85 -179 11 -48 33 -87 77
-136 24 -26 29 -40 15 -40 -12 0 -83 52 -105 77 -16 19 -220 125 -299 157 -22
8 -49 31 -65 54 -15 22 -54 57 -87 78 -55 37 -106 89 -106 110 0 14 -49 102
-81 147 -18 25 -29 52 -29 73 0 18 -4 36 -10 39 -5 3 -10 23 -10 44 0 21 -6
56 -14 78 -8 22 -19 72 -25 111 -6 39 -22 101 -35 139 -14 37 -27 86 -31 108
-9 57 -44 214 -56 252 -6 18 -17 33 -24 33 -8 0 -11 7 -8 21 3 12 2 24 -3 28
-16 11 -35 74 -41 131 -5 55 -31 99 -51 86 -19 -11 -32 -124 -33 -286 -2 -175
20 -358 63 -545 12 -50 22 -127 22 -175 1 -91 -5 -100 -57 -86 -45 11 -217
279 -217 337 0 8 -7 25 -16 37 -38 54 -69 573 -37 627 6 11 19 70 28 130 9 61
21 124 27 140 5 17 11 37 13 45 6 35 18 77 31 107 8 17 14 37 14 45 0 8 9 31
20 53 11 22 20 50 20 62 0 13 11 45 24 71 13 26 31 70 39 97 9 28 25 68 36 90
15 28 19 49 15 69 -5 24 -2 34 18 50 30 25 61 101 52 128 -3 12 3 33 19 57 14
21 29 56 32 77 4 22 20 58 36 81 16 23 29 54 29 72 0 20 10 40 33 63 18 18 44
60 57 93 13 33 32 71 42 84 10 13 18 28 18 34 0 6 7 18 16 28 9 10 20 40 25
66 5 26 17 55 27 63 24 20 76 123 119 235 18 50 47 112 63 138 17 27 30 53 30
58 0 5 13 33 29 62 16 28 64 135 106 237 42 102 97 226 121 277 24 50 44 99
44 107 0 8 14 38 30 66 17 28 30 61 30 73 0 30 21 60 123 171 98 109 108 132
50 121 -21 -4 -43 -11 -49 -16 -6 -5 -14 -6 -17 -3 -8 9 -109 -16 -127 -31 -8
-7 -30 -20 -47 -29 -41 -20 -68 -61 -68 -100 0 -25 -5 -31 -32 -38 -26 -7 -33
-14 -33 -33 0 -13 -4 -27 -10 -30 -5 -3 -10 1 -10 9 0 9 -8 16 -18 16 -15 0
-17 -8 -15 -67 3 -59 0 -74 -24 -117 -25 -43 -35 -51 -82 -67 -35 -11 -69 -32
-100 -62 -47 -46 -140 -110 -185 -127 -24 -9 -26 -7 -32 28 -7 41 -22 65 -35
56 -5 -3 -9 -63 -9 -133 l0 -127 -51 -118 c-85 -199 -189 -346 -255 -362 -35
-9 -108 10 -146 37 -34 25 -68 88 -98 184 -17 56 -20 83 -15 135 9 86 30 169
61 234 31 65 48 84 117 130 90 60 109 96 51 96 -28 0 -29 7 -10 52 45 108 56
146 50 177 -4 18 -12 34 -18 36 -6 2 -23 6 -38 9 -46 10 -51 56 -16 136 35 80
41 90 51 90 20 0 181 95 209 124 21 21 29 38 28 60 -3 48 -2 51 30 70 27 16
40 16 118 7 124 -15 182 -13 307 11 61 12 143 22 184 23 70 1 75 3 103 33 16
18 26 37 23 42 -11 17 14 20 56 6 120 -39 328 -81 410 -82 47 -1 111 -4 142
-8 59 -8 97 -2 97 15 0 15 -47 76 -107 139 -78 82 -70 83 117 25z m630 -25 c0
-5 5 -10 11 -10 6 0 58 -28 116 -62 81 -47 132 -87 224 -176 66 -63 118 -117
115 -119 -7 -7 -123 74 -210 146 -44 37 -98 80 -121 96 -63 45 -161 135 -147
135 7 0 12 -4 12 -10z m-127 -845 c66 -20 65 -18 119 -95 105 -149 233 -448
282 -660 61 -264 59 -248 52 -390 -7 -145 -31 -370 -46 -435 -5 -22 -17 -76
-26 -120 -9 -44 -28 -123 -41 -175 -12 -52 -23 -109 -23 -126 0 -17 -18 -86
-40 -154 -22 -68 -40 -129 -40 -135 0 -7 -20 -73 -43 -146 -24 -74 -56 -174
-71 -224 -15 -49 -44 -132 -63 -183 -31 -81 -35 -101 -30 -155 2 -34 16 -95
31 -136 14 -41 23 -78 19 -82 -15 -12 -252 -63 -260 -56 -6 6 -24 111 -26 153
-1 17 -15 46 -30 65 -30 37 -312 438 -409 582 -55 81 -218 345 -275 443 -24
43 -40 95 -66 224 -35 170 -39 221 -28 329 6 57 11 136 11 176 0 88 29 265 65
395 15 52 30 113 35 135 11 48 47 170 61 205 6 14 41 45 81 70 151 96 178 118
353 290 99 97 198 187 220 198 48 25 117 28 188 7z m1557 -165 c76 -78 170
-189 208 -247 15 -22 43 -55 63 -74 47 -45 189 -277 220 -359 21 -58 24 -80
24 -210 0 -95 -5 -156 -13 -176 -7 -17 -16 -53 -20 -80 -9 -58 -31 -74 -107
-74 -37 0 -60 6 -87 25 -20 14 -42 25 -48 25 -22 0 -140 59 -146 73 -3 8 -24
20 -48 26 -23 5 -51 21 -62 33 -11 13 -30 30 -44 39 -23 15 -21 39 3 39 7 0
39 -17 72 -39 33 -21 76 -42 95 -46 19 -4 46 -15 60 -24 53 -35 83 -47 87 -33
3 6 16 12 31 12 35 0 72 37 72 71 0 38 -17 45 -44 20 -12 -12 -27 -21 -34 -21
-16 0 -31 33 -31 66 2 69 -15 166 -43 251 -24 74 -35 95 -56 105 -20 10 -28
24 -37 70 -12 61 -27 86 -62 99 -37 14 -71 108 -127 349 -43 186 -42 174 -15
159 13 -6 53 -42 89 -79z m-4310 -638 c43 -82 64 -110 131 -171 63 -58 86 -87
114 -145 19 -40 35 -87 35 -104 0 -30 -2 -31 -31 -25 l-31 6 7 -49 c3 -27 11
-73 17 -101 9 -40 8 -67 -2 -110 -16 -71 -22 -58 -39 77 -16 131 -28 172 -48
168 -27 -5 -35 -56 -28 -179 6 -128 -14 -308 -39 -358 -14 -27 -34 -41 -57
-41 -6 0 -22 25 -36 56 -25 55 -26 61 -19 188 3 72 9 165 12 207 5 55 3 83 -7
102 -25 47 -47 13 -83 -129 -40 -160 -53 -188 -88 -192 -24 -3 -28 2 -39 37
-14 49 -1 162 36 311 29 117 70 305 84 385 14 76 41 165 52 165 4 0 31 -44 59
-98z m900 -13 c0 -11 -30 -67 -96 -174 -40 -66 -204 -396 -204 -411 0 -4 -46
-100 -101 -213 -56 -113 -118 -244 -139 -291 -20 -47 -44 -98 -52 -115 l-16
-29 -17 39 c-42 96 -75 198 -75 228 0 18 11 48 24 67 12 19 28 52 35 72 7 20
18 41 25 47 7 6 21 39 30 73 10 35 22 77 27 94 5 17 9 44 9 60 0 37 -34 197
-56 260 -14 42 -14 49 1 81 16 33 18 35 53 26 64 -14 179 -8 200 10 10 10 25
17 33 17 20 0 124 95 150 136 20 34 21 34 95 34 46 0 74 -4 74 -11z m3604
-679 c33 -16 47 -32 70 -82 45 -94 92 -219 100 -263 4 -22 11 -44 16 -50 4 -5
15 -40 24 -77 9 -37 25 -85 35 -105 23 -48 35 -87 56 -188 10 -44 23 -107 31
-140 33 -146 28 -175 -24 -157 -48 16 -121 74 -128 101 -4 15 1 42 16 75 28
65 37 101 21 92 -19 -12 -12 10 14 40 13 15 23 30 21 31 -2 2 -22 -9 -45 -24
-27 -18 -58 -28 -89 -30 l-49 -3 -22 54 -22 54 25 59 c13 32 36 81 50 109 14
29 26 59 26 67 0 8 7 20 15 27 25 21 17 28 -21 20 -22 -5 -47 -4 -62 1 -15 6
-36 8 -49 4 -29 -7 -37 9 -57 115 -9 47 -26 125 -38 173 -21 90 -19 101 17
110 11 3 22 5 24 6 3 0 23 -8 45 -19z m-979 -460 c17 -57 18 -73 6 -208 -15
-178 -26 -244 -56 -342 -12 -41 -28 -111 -35 -155 -17 -122 -56 -315 -76 -385
-5 -20 -34 -37 -78 -45 -34 -7 -36 -6 -36 19 0 34 46 200 66 238 14 27 48 172
78 333 8 39 32 161 55 272 25 125 41 230 41 274 0 38 4 68 8 65 5 -3 17 -33
27 -66z m329 13 c11 -32 14 -62 10 -100 -5 -42 -3 -57 10 -72 20 -22 37 -219
18 -207 -7 4 -12 18 -12 32 0 13 -4 24 -9 24 -6 0 -12 -51 -14 -112 -11 -256
-29 -463 -42 -477 -8 -8 -33 -17 -57 -21 -24 -4 -56 -11 -72 -15 l-28 -8 7 64
c3 35 11 80 16 100 5 20 16 108 24 195 8 88 23 209 34 269 28 158 41 250 41
293 0 40 23 82 45 82 7 0 20 -21 29 -47z m-3649 -62 c3 -10 6 -36 6 -57 0 -22
1 -57 1 -79 2 -49 -22 -101 -44 -97 -11 2 -18 -8 -22 -31 -6 -32 -40 -76 -51
-65 -15 15 -55 155 -50 175 3 12 35 53 70 89 36 37 65 71 65 75 0 17 19 9 25
-10z m3123 -120 c2 -31 -4 -59 -23 -100 -15 -31 -31 -67 -37 -81 -6 -14 -18
-41 -28 -60 -10 -19 -27 -66 -40 -105 -12 -38 -28 -83 -35 -100 -7 -16 -26
-66 -41 -110 -15 -44 -37 -98 -49 -120 -60 -108 -85 -159 -85 -172 0 -7 -11
-35 -24 -61 -13 -26 -27 -69 -30 -95 -8 -51 -26 -68 -52 -46 -20 17 -14 52 31
174 20 55 50 139 66 187 16 48 56 141 89 205 71 141 108 228 164 389 50 141
53 146 74 142 12 -2 18 -16 20 -47z m1267 -313 c-21 -29 -88 -104 -149 -167
-95 -96 -122 -118 -186 -148 -168 -79 -206 -107 -264 -196 -57 -88 -49 -82
-281 -207 -33 -18 -78 -43 -100 -55 -22 -13 -69 -33 -105 -45 -36 -11 -80 -28
-98 -36 -18 -9 -76 -26 -128 -39 -52 -13 -102 -29 -110 -36 -17 -14 -220 -17
-293 -4 -30 5 -52 2 -77 -10 -32 -15 -37 -15 -59 -1 -13 9 -31 16 -39 16 -21
0 -29 17 -22 45 4 16 16 25 38 30 18 4 38 11 43 15 6 5 33 11 60 15 28 4 55
12 62 17 12 9 109 36 228 63 33 7 87 23 120 35 33 12 78 27 100 32 22 6 49 14
60 19 11 5 70 26 131 48 64 23 143 60 185 87 41 26 137 80 215 119 86 44 185
105 255 157 63 47 143 103 179 125 100 62 249 163 256 174 3 6 8 8 11 5 3 -3
-12 -29 -32 -58z m239 -298 l41 0 -49 -25 c-27 -13 -64 -27 -82 -31 -30 -5
-34 -4 -34 14 0 11 -3 28 -7 38 -6 15 -1 16 42 11 26 -4 66 -7 89 -7z m-329
-47 c44 -21 44 -29 -1 -37 -42 -8 -87 15 -78 39 8 20 35 19 79 -2z m-1177
-785 c7 -7 12 -19 12 -29 0 -29 46 -161 87 -249 48 -103 56 -131 45 -161 -8
-21 -10 -20 -39 22 -17 24 -61 105 -97 179 -37 74 -71 143 -76 152 -17 30 -11
66 12 82 27 19 40 20 56 4z m102 -38 c0 -49 0 -49 -25 -38 -13 6 -27 20 -31
32 -3 12 -7 28 -10 36 -3 11 6 15 31 17 l35 2 0 -49z"></path>
</g>
</svg>