 <svg version="1.0" xmlns="http://www.w3.org/2000/svg" width="700.000000pt" height="682.000000pt" viewBox="0 0 700.000000 682.000000" preserveAspectRatio="xMidYMid meet">
<metadata>
Created by potrace 1.12, written by Peter Selinger 2001-2015
</metadata>
<g transform="translate(0.000000,682.000000) scale(0.100000,-0.100000)" fill="#fff" stroke="none">
<path d="M973 6065 c3 -258 10 -483 15 -500 l9 -30 8 39 c4 22 5 82 2 135 -6
86 -5 93 9 80 17 -18 45 -177 63 -364 6 -66 16 -156 22 -200 20 -152 13 -375
-12 -375 -4 0 -11 17 -14 38 -4 20 -12 73 -20 117 -8 44 -16 104 -19 133 -3
29 -8 57 -12 64 -5 7 -36 9 -95 6 -49 -3 -89 -4 -89 -2 0 2 13 22 28 46 16 24
37 57 47 75 l19 32 -66 98 c-70 105 -92 143 -86 148 2 2 24 -7 48 -19 67 -34
140 -60 147 -53 6 7 -214 117 -234 117 -18 0 -16 -24 5 -51 10 -13 33 -49 51
-79 18 -30 51 -79 73 -108 l41 -52 -25 -38 c-14 -20 -44 -59 -67 -87 -51 -62
-53 -80 -8 -70 44 10 181 24 188 19 3 -2 9 -43 12 -91 21 -292 40 -531 63
-773 43 -463 50 -551 43 -556 -11 -6 -95 87 -227 255 -92 117 -119 147 -126
141 -9 -9 22 -257 50 -403 15 -75 24 -140 21 -143 -6 -7 -37 7 -315 143 -107
52 -198 93 -203 91 -13 -4 69 -125 213 -317 59 -79 108 -147 108 -152 0 -4
-31 -11 -70 -15 -38 -3 -70 -10 -70 -13 0 -4 9 -13 21 -21 11 -8 46 -34 76
-57 31 -24 59 -43 64 -43 5 0 9 -4 9 -8 0 -14 -239 -78 -363 -97 -20 -3 -37
-9 -37 -14 0 -4 126 -70 279 -147 154 -76 278 -143 277 -148 -1 -6 -24 -15
-52 -22 -27 -7 -86 -26 -131 -42 l-82 -29 87 -17 c48 -10 112 -24 142 -32 216
-54 316 -84 321 -95 4 -8 14 -56 24 -108 48 -272 220 -598 515 -972 128 -162
338 -343 466 -399 38 -17 83 -38 101 -46 17 -8 38 -14 45 -14 8 0 23 -10 34
-21 10 -12 69 -60 131 -106 196 -148 419 -244 574 -249 42 -1 85 -7 96 -12 11
-6 57 -24 104 -41 46 -16 122 -45 169 -65 108 -45 258 -85 485 -130 335 -67
343 -68 640 -73 281 -5 420 3 565 31 41 8 114 21 163 30 89 16 231 66 209 74
-7 2 -34 -3 -60 -12 -98 -33 -272 -53 -341 -40 -35 7 -42 24 -9 24 12 0 49 7
82 16 34 8 86 22 116 29 133 33 137 35 148 61 22 46 -20 145 -87 207 -45 41
-45 57 -3 57 42 0 56 14 49 47 -11 55 -76 178 -120 225 -47 52 -82 67 -203 88
-64 11 -73 11 -99 -6 -26 -17 -27 -21 -21 -72 l6 -55 -32 7 c-18 3 -51 10 -73
14 -22 4 -58 4 -80 -1 -58 -13 -144 -2 -160 20 -13 17 -15 17 -47 -1 -72 -41
-98 -75 -138 -184 -17 -43 -34 -36 -38 16 -9 121 186 290 387 336 107 24 110
24 338 -34 49 -12 126 -74 199 -158 35 -43 68 -82 72 -88 53 -78 121 -235 153
-354 15 -55 17 -60 18 -30 2 89 -94 328 -169 422 -99 124 -178 195 -262 232
-32 14 -102 73 -220 187 -204 196 -459 426 -499 452 -16 11 -29 14 -29 9 0 -6
20 -51 45 -101 25 -50 45 -95 45 -100 0 -5 -33 -7 -80 -4 -45 3 -80 2 -80 -3
0 -15 49 -83 155 -214 143 -175 180 -229 163 -234 -94 -31 -145 -39 -258 -40
-119 0 -129 1 -208 33 -78 31 -88 39 -172 131 -49 55 -91 109 -94 122 -3 13
-8 74 -11 136 -8 145 -27 269 -64 407 -23 86 -27 114 -18 126 31 44 219 267
367 435 91 104 258 294 371 424 408 466 743 824 1209 1291 358 359 673 679
821 834 47 50 130 132 184 183 110 101 108 109 -11 68 -84 -28 -416 -183 -497
-231 -32 -19 -62 -35 -66 -35 -4 0 -14 62 -20 138 -18 193 -28 283 -34 289
-11 11 -25 -8 -32 -44 -4 -21 -10 -42 -15 -48 -4 -5 -13 -26 -18 -45 -19 -63
-120 -322 -130 -332 -6 -6 -34 26 -80 89 -38 54 -84 111 -101 128 l-32 30 6
-70 c4 -39 13 -119 21 -180 l14 -110 -24 -20 c-13 -11 -64 -45 -112 -76 -49
-30 -127 -80 -174 -109 -47 -29 -128 -81 -180 -115 -52 -34 -124 -80 -160
-102 -36 -21 -164 -100 -285 -175 -683 -420 -1079 -662 -1460 -891 -110 -66
-220 -133 -244 -149 -25 -15 -47 -28 -51 -28 -10 0 -60 51 -60 61 0 5 23 31
52 57 111 100 303 291 298 296 -3 3 -59 -8 -125 -24 -65 -16 -120 -28 -121
-27 -2 2 46 74 106 161 102 147 177 270 208 340 l12 29 -40 -7 c-45 -7 -249
-84 -323 -121 -27 -14 -58 -25 -69 -25 -18 0 -19 5 -14 48 20 151 17 592 -4
592 -10 0 -69 -93 -170 -267 -45 -79 -86 -143 -91 -143 -5 0 -9 27 -9 60 0 35
-4 60 -11 60 -5 0 -21 -24 -34 -54 -28 -62 -45 -79 -45 -42 0 42 -61 315 -83
371 -11 29 -12 27 -23 -45 -6 -41 -21 -133 -33 -205 -12 -71 -31 -188 -42
-260 -10 -71 -23 -143 -27 -160 l-9 -30 -30 60 c-17 33 -59 125 -94 205 -35
80 -74 163 -87 185 l-23 40 5 -50 c3 -27 8 -147 11 -265 3 -118 8 -228 12
-244 5 -27 3 -28 -21 -22 -14 3 -49 20 -78 37 -29 18 -65 35 -80 40 -25 7 -28
5 -28 -14 0 -12 16 -50 34 -85 22 -41 30 -64 23 -67 -7 -2 -49 -6 -94 -8 -45
-3 -96 -12 -112 -20 -17 -9 -33 -12 -35 -9 -4 7 -69 230 -106 362 -10 36 -43
157 -74 269 -78 282 -97 354 -266 1028 -82 326 -171 666 -199 755 -27 90 -61
205 -77 256 -15 51 -34 98 -42 105 -13 11 -14 -41 -9 -458z m37 305 c0 -11 6
-34 14 -52 8 -18 26 -73 40 -123 14 -49 38 -130 52 -178 28 -95 72 -268 84
-332 5 -22 18 -76 30 -120 26 -94 40 -156 69 -285 12 -52 24 -102 27 -110 8
-20 30 -105 53 -205 28 -120 43 -178 52 -200 5 -11 13 -40 18 -65 11 -55 58
-236 70 -270 5 -14 17 -54 26 -90 17 -61 28 -102 75 -270 34 -122 91 -325 111
-390 10 -36 37 -130 59 -210 22 -80 44 -158 49 -175 5 -16 24 -82 41 -145 18
-63 38 -131 45 -150 7 -19 23 -68 35 -108 12 -40 26 -75 31 -78 5 -3 9 -18 9
-34 0 -16 5 -32 10 -35 13 -8 13 16 -1 52 -5 15 -12 41 -13 58 -2 16 -8 44
-14 60 -6 17 -18 57 -27 90 -10 33 -21 71 -26 85 -4 14 -16 59 -25 100 -9 41
-22 95 -30 119 -18 57 -18 76 3 131 30 83 59 105 218 160 44 15 97 35 117 44
51 22 92 20 184 -8 204 -61 263 -90 414 -205 93 -70 250 -219 250 -237 0 -6
24 -37 53 -70 29 -32 75 -86 102 -119 28 -33 57 -68 65 -77 8 -10 24 -18 35
-18 22 0 165 -134 165 -154 0 -17 66 -151 91 -186 28 -38 36 -38 44 0 4 18 25
45 56 71 40 34 55 40 78 36 24 -5 37 2 87 49 33 31 70 63 84 72 43 29 102 83
185 171 44 46 126 129 183 185 57 55 120 126 141 157 21 32 103 120 182 196
218 209 289 283 324 338 52 81 122 152 177 179 129 64 451 323 688 551 63 61
164 156 224 211 61 54 117 106 126 114 9 8 27 24 41 35 156 130 235 203 227
211 -4 3 -13 1 -20 -5 -95 -76 -118 -94 -237 -176 -73 -50 -137 -85 -156 -85
-3 0 -5 7 -5 15 0 21 -5 20 -69 -19 -87 -52 -260 -133 -322 -151 -31 -8 -71
-27 -89 -40 -19 -14 -40 -25 -47 -25 -7 0 -35 -19 -62 -42 -56 -48 -139 -103
-221 -145 -29 -15 -64 -37 -75 -48 -12 -11 -36 -29 -55 -40 -81 -48 -122 -72
-172 -98 -29 -16 -64 -39 -78 -52 -14 -14 -40 -30 -58 -36 -18 -6 -37 -20 -43
-30 -5 -10 -16 -19 -23 -19 -7 0 -25 -9 -40 -21 -14 -11 -52 -30 -83 -41 -31
-11 -66 -26 -77 -34 -11 -8 -30 -14 -42 -14 -13 0 -36 -12 -53 -26 -17 -14
-35 -22 -41 -19 -6 4 -17 2 -24 -4 -8 -7 -18 -11 -22 -10 -5 1 -22 -3 -38 -10
-20 -8 -32 -9 -40 -1 -11 11 -1 20 85 75 58 37 227 149 339 225 47 31 90 59
95 61 6 2 42 25 80 50 39 25 95 62 125 81 30 19 96 61 145 93 50 32 101 63
115 69 14 6 90 54 170 107 80 53 185 122 233 153 100 66 117 90 98 141 -12 35
-28 205 -18 205 3 0 16 -19 30 -42 33 -56 114 -138 137 -138 10 0 24 14 33 33
39 85 77 180 102 257 27 84 44 119 46 89 0 -7 5 -50 10 -94 14 -102 17 -141
18 -187 1 -54 28 -66 77 -33 21 14 49 28 63 32 14 3 88 37 163 75 75 37 141
68 147 68 5 0 33 12 61 26 48 24 80 26 80 6 0 -5 -35 -43 -77 -84 -292 -283
-460 -450 -859 -850 -417 -420 -635 -643 -709 -729 -17 -18 -89 -97 -160 -174
-205 -222 -305 -332 -328 -362 -11 -15 -39 -48 -61 -73 -23 -25 -63 -72 -91
-104 -27 -32 -86 -100 -130 -150 -44 -50 -84 -99 -90 -108 -5 -9 -59 -72 -120
-140 -130 -148 -126 -143 -221 -269 -41 -54 -79 -99 -83 -99 -5 0 -13 12 -18
27 -33 91 -66 169 -80 187 -15 20 -15 20 -8 1 4 -11 15 -51 25 -90 10 -38 28
-104 40 -145 52 -178 99 -452 100 -581 0 -83 -1 -86 -26 -98 -22 -10 -31 -9
-52 5 -57 37 -421 390 -504 488 -18 22 -67 78 -108 126 -41 47 -87 101 -103
120 -15 19 -74 81 -130 138 -143 145 -213 193 -248 171 -15 -9 1 -64 62 -224
14 -38 39 -104 54 -145 15 -41 35 -93 45 -115 10 -22 30 -69 44 -105 15 -36
34 -79 41 -96 27 -58 87 -200 120 -279 18 -44 41 -100 52 -125 52 -117 83
-194 83 -205 0 -7 10 -34 21 -61 12 -26 23 -72 24 -101 3 -50 2 -53 -20 -53
-28 0 -87 22 -197 74 -42 20 -79 36 -82 36 -21 0 -441 273 -586 381 -126 95
-196 152 -208 171 -10 15 -9 15 14 3 14 -7 46 -29 72 -49 58 -45 301 -217 328
-232 22 -12 81 -43 107 -56 22 -11 22 0 -2 37 -28 44 -91 105 -147 143 -192
129 -367 257 -414 302 -40 37 -93 136 -136 247 -18 50 -24 79 -20 108 7 44 -4
103 -54 295 -18 69 -43 172 -55 230 -12 58 -40 177 -62 265 -22 88 -46 187
-53 220 -7 33 -17 74 -22 90 -11 33 -24 117 -38 235 -4 41 -11 84 -13 96 -26
106 -41 164 -52 189 -8 17 -19 53 -25 80 -6 28 -18 79 -26 115 -8 36 -18 94
-23 130 -5 36 -14 88 -20 115 -6 28 -20 91 -30 140 -18 85 -38 165 -62 245
-28 93 -68 261 -79 333 -4 31 -13 72 -18 90 -5 17 -17 70 -26 117 -10 47 -24
108 -32 136 -8 28 -14 64 -14 80 0 17 -4 34 -9 39 -23 23 -81 329 -81 427 0
42 -27 118 -42 118 -6 0 -7 -16 -3 -40 4 -24 3 -40 -3 -40 -16 0 -31 81 -35
200 -3 63 -6 120 -7 125 -7 31 1 185 10 180 6 -3 10 -15 10 -25z m108 -1638
c3 -64 2 -75 -9 -64 -8 8 -15 43 -17 90 -3 64 -2 75 9 64 8 -8 15 -43 17 -90z
m1805 -709 c5 -8 16 -8 40 -1 17 6 52 17 77 25 25 8 77 30 115 48 76 37 164
69 171 62 7 -7 -60 -129 -120 -217 -32 -47 -89 -130 -126 -185 -37 -55 -65
-103 -62 -106 4 -4 30 -3 57 1 28 4 73 11 100 15 l50 7 -60 -57 c-33 -31 -102
-97 -154 -146 l-94 -90 -22 21 c-19 18 -23 32 -23 80 0 32 -5 74 -10 92 -6 18
-13 49 -16 69 -7 40 -85 149 -172 241 -30 31 -54 64 -54 73 0 9 -15 22 -33 30
-29 12 -37 24 -56 77 -39 110 -46 157 -28 175 18 18 37 9 37 -18 0 -34 24 -20
45 26 11 25 23 45 26 45 4 0 11 -17 16 -37 4 -20 14 -38 20 -40 15 -5 59 62
153 237 41 74 81 141 89 148 15 12 16 -14 21 -275 3 -158 8 -293 13 -300z
m-460 179 c-3 -34 -10 -65 -14 -68 -15 -9 -17 163 -3 195 12 27 23 -58 17
-127z m-1608 -183 c61 -78 81 -101 182 -207 82 -88 112 -146 97 -186 -4 -10
-1 -43 6 -75 10 -49 10 -62 -5 -97 -9 -21 -23 -58 -30 -81 -7 -23 -27 -63 -45
-89 -34 -52 -80 -148 -80 -170 0 -7 -12 -21 -27 -31 -60 -37 -111 -85 -123
-113 -9 -21 -19 -30 -36 -30 -12 0 -25 4 -28 9 -7 10 -66 21 -66 11 0 -3 30
-26 67 -50 37 -24 62 -45 56 -47 -6 -2 -56 19 -110 48 -54 29 -156 82 -228
118 -122 61 -128 66 -95 69 19 2 42 9 50 16 15 12 144 56 228 76 46 12 53 24
22 40 -45 24 -130 94 -127 104 2 6 23 13 48 16 30 3 45 10 47 21 2 9 -31 65
-72 125 -117 170 -131 189 -170 238 -16 20 -26 39 -23 42 3 3 29 -6 59 -19 29
-14 82 -37 118 -52 73 -31 118 -51 204 -89 85 -38 87 -37 80 37 -3 34 -10 76
-14 92 -5 17 -14 80 -20 140 -5 61 -14 124 -19 140 -7 26 -5 55 3 55 2 0 25
-28 51 -61z m1144 -135 c3 -16 1 -17 -13 -5 -19 16 -21 34 -3 29 6 -3 14 -13
16 -24z m1611 -356 c0 -7 -12 -24 -25 -37 -14 -13 -25 -27 -25 -31 0 -4 -19
-19 -42 -33 -62 -37 -128 -96 -128 -115 0 -9 -24 -44 -54 -77 -48 -53 -56 -59
-74 -48 -14 8 -23 8 -30 1 -8 -8 -21 -6 -45 6 -19 9 -42 16 -52 16 -23 0 -67
24 -89 49 -20 21 -20 22 0 40 10 10 39 26 64 34 72 25 240 96 304 127 32 16
75 33 95 36 20 4 47 15 60 25 28 22 41 24 41 7z m-2662 -852 c64 -14 105 -36
66 -36 -26 0 -117 25 -140 38 -26 15 -5 15 74 -2z m1878 -468 c52 -55 98 -107
174 -198 83 -100 290 -317 363 -381 39 -35 124 -113 187 -174 64 -60 137 -129
163 -153 27 -23 47 -48 44 -55 -5 -13 -11 -13 -76 -2 l-44 7 7 -28 c10 -40 51
-109 92 -154 19 -21 34 -41 34 -46 0 -5 19 -33 41 -63 23 -30 55 -77 72 -105
17 -28 41 -64 54 -79 25 -32 27 -36 14 -56 -7 -11 -13 -11 -37 2 -16 9 -56 25
-89 36 -149 49 -276 114 -343 175 -31 28 -84 74 -117 101 -76 63 -81 69 -165
191 -43 65 -91 153 -129 242 -34 77 -68 153 -76 168 -8 16 -15 33 -15 38 0 5
-9 30 -21 55 -29 63 -43 95 -75 171 -31 76 -55 130 -78 182 -9 20 -16 40 -16
45 0 4 -11 35 -25 68 -42 104 -28 107 61 13z m1879 -683 c33 -27 78 -67 100
-88 l40 -39 -40 7 c-22 4 -51 14 -65 23 -37 23 -197 187 -265 272 -109 135
-101 136 36 5 74 -71 161 -152 194 -180z m-2656 -202 c34 -36 59 -68 57 -70
-10 -10 -75 41 -104 82 -18 25 -32 48 -32 50 0 17 26 -4 79 -62z m1991 -143
c47 -56 92 -112 100 -124 8 -11 39 -50 70 -86 31 -36 67 -81 80 -100 13 -19
57 -73 98 -120 100 -115 132 -158 132 -175 0 -18 -63 34 -169 139 -84 82 -146
154 -204 237 -45 66 -117 166 -159 223 -47 63 -80 117 -84 137 l-6 34 29 -31
c15 -17 66 -77 113 -134z m-1771 34 c8 -48 161 -209 293 -310 35 -26 65 -51
68 -54 13 -14 100 -69 119 -75 19 -6 30 -25 15 -25 -13 0 -170 80 -210 107
-171 115 -238 174 -286 248 -27 41 -44 108 -33 126 10 15 29 5 34 -17z m1886
-29 c22 -4 56 -11 77 -16 l36 -9 -18 -48 c-11 -26 -22 -60 -25 -76 l-6 -29
-16 24 c-9 13 -36 47 -59 74 -22 28 -47 61 -53 73 -11 21 -11 23 6 18 10 -2
36 -8 58 -11z m-1533 -69 c118 -55 182 -101 285 -202 69 -68 83 -87 83 -113 0
-41 -19 -48 -84 -31 -91 23 -280 131 -362 208 -80 73 -124 159 -96 186 14 14
82 -4 174 -48z m2496 23 c29 -5 114 -115 152 -194 22 -46 40 -86 40 -89 0 -19
-31 1 -67 43 -44 51 -146 130 -136 106 7 -21 -2 -19 -51 10 -44 26 -86 65 -70
65 5 0 -10 12 -33 26 -24 14 -43 30 -43 35 0 9 161 7 208 -2z m-518 -313 c0
-7 7 -19 15 -26 8 -7 15 -27 15 -45 0 -25 10 -43 38 -72 61 -64 91 -80 143
-75 31 2 50 -1 60 -11 25 -24 56 -37 93 -37 31 0 36 -3 36 -24 0 -34 -17 -43
-95 -50 -178 -17 -196 -10 -351 128 -41 36 -44 42 -44 90 -1 45 -2 49 -14 34
-16 -22 -22 -22 -30 -3 -10 26 5 45 35 45 19 0 32 7 40 23 19 36 59 52 59 23z
m-1755 -86 c8 -13 -35 -13 -55 0 -11 7 -7 10 17 10 17 0 35 -4 38 -10z m1970
-56 c9 -14 15 -28 12 -30 -6 -6 -63 24 -77 41 -11 13 -8 15 18 15 21 0 35 -8
47 -26z m70 -24 c3 -5 1 -10 -4 -10 -6 0 -11 5 -11 10 0 6 2 10 4 10 3 0 8 -4
11 -10z m-1490 -48 c45 -16 85 -31 90 -34 6 -3 51 -17 100 -32 50 -15 115 -36
145 -46 30 -10 74 -21 97 -25 24 -4 45 -11 49 -16 3 -5 17 -10 32 -10 15 -1
20 -3 12 -5 -13 -4 -70 6 -209 36 -46 10 -128 38 -221 74 -57 22 -189 84 -180
85 3 1 41 -12 85 -27z m585 -182 c0 -5 -4 -10 -10 -10 -5 0 -10 5 -10 10 0 6
5 10 10 10 6 0 10 -4 10 -10z"></path>
<path d="M1015 6118 c-10 -26 2 -55 17 -40 8 8 8 18 1 34 -10 21 -12 21 -18 6z"></path>
<path d="M6570 5269 c0 -5 5 -7 10 -4 6 3 10 8 10 11 0 2 -4 4 -10 4 -5 0 -10
-5 -10 -11z"></path>
<path d="M6465 5190 c-3 -5 -1 -10 4 -10 6 0 11 5 11 10 0 6 -2 10 -4 10 -3 0
-8 -4 -11 -10z"></path>
<path d="M2030 2688 c0 -16 5 -28 10 -28 13 0 13 20 0 40 -8 12 -10 9 -10 -12z"></path>
<path d="M660 2980 c0 -6 7 -10 15 -10 8 0 15 2 15 4 0 2 -7 6 -15 10 -8 3
-15 1 -15 -4z"></path>
</g>
</svg>